<svg width="347" height="327" viewBox="0 0 347 327" fill="none" xmlns="http://www.w3.org/2000/svg">
<path d="M1 226.192L173.144 126.804L345.288 226.192L173.144 325.58L1 226.192Z" stroke="white" stroke-miterlimit="10"/>
<path d="M87.0689 275.886L259.213 176.498" stroke="white" stroke-miterlimit="10"/>
<path d="M44.395 250.911L216.539 151.523" stroke="white" stroke-miterlimit="10"/>
<path d="M129.844 300.647L301.988 201.259" stroke="white" stroke-miterlimit="10"/>
<path d="M259.213 275.886L87.0689 176.498" stroke="white" stroke-miterlimit="10"/>
<path d="M216.211 300.623L44.0673 201.235" stroke="white" stroke-miterlimit="10"/>
<path d="M302.072 251.084L129.928 151.696" stroke="white" stroke-miterlimit="10"/>
<path d="M1 204.077L173.144 104.69L345.288 204.077L173.144 303.459L1 204.077Z" fill="url(#paint0_linear_350_1848)"/>
<path d="M53.2682 203.499V168.459L83.4398 150.939L113.957 168.459V203.499L83.4398 221.014L53.2682 203.499Z" fill="#18181C" stroke="white" stroke-miterlimit="10"/>
<path d="M53.2682 168.459L83.4398 185.979L113.957 168.459" stroke="white" stroke-miterlimit="10"/>
<path d="M83.4398 221.013V185.979" stroke="white" stroke-miterlimit="10"/>
<path d="M136.912 63.3268V21.8089L172.655 1.05298L208.816 21.8089V63.3268L172.655 84.0827L136.912 63.3268Z" fill="#18181C" stroke="white" stroke-miterlimit="10"/>
<path d="M136.912 21.8091L172.655 42.565L208.816 21.8091" stroke="white" stroke-miterlimit="10"/>
<path d="M172.655 84.0828V42.5649" stroke="white" stroke-miterlimit="10"/>
<path d="M198.852 78.1951V47.3562L225.4 31.9397L252.258 47.3562V78.1951L225.4 93.6116L198.852 78.1951Z" fill="#18181C" stroke="white" stroke-miterlimit="10"/>
<path d="M198.852 47.3562L225.4 62.7727L252.258 47.3562" stroke="white" stroke-miterlimit="10"/>
<path d="M225.4 93.6116V62.7727" stroke="white" stroke-miterlimit="10"/>
<path d="M222.331 203.893V163.138L257.419 142.757L292.918 163.138V203.893L257.419 224.273L222.331 203.893Z" fill="#18181C" stroke="white" stroke-miterlimit="10"/>
<path d="M222.331 163.138L257.419 183.518L292.918 163.138" stroke="white" stroke-miterlimit="10"/>
<path d="M257.419 224.273V183.518" stroke="white" stroke-miterlimit="10"/>
<path d="M262.532 157.965V147.352L271.674 142.042L280.916 147.352V157.965L271.674 163.275L262.532 157.965Z" fill="#18181C" stroke="white" stroke-miterlimit="10"/>
<path d="M262.532 147.352L271.674 152.655L280.916 147.352" stroke="white" stroke-miterlimit="10"/>
<path d="M271.673 163.275V152.656" stroke="white" stroke-miterlimit="10"/>
<path d="M205.943 230.769V207.617L225.877 196.044L246.037 207.617V230.769L225.877 242.342L205.943 230.769Z" fill="#18181C" stroke="white" stroke-miterlimit="10"/>
<path d="M205.943 207.617L225.877 219.196L246.037 207.617" stroke="white" stroke-miterlimit="10"/>
<path d="M225.877 242.342V219.196" stroke="white" stroke-miterlimit="10"/>
<path d="M196.665 182.106V154.324L220.591 140.433L244.792 154.324V182.106L220.591 196.003L196.665 182.106Z" fill="#18181C" stroke="white" stroke-miterlimit="10"/>
<path d="M196.665 154.324L220.591 168.215L244.792 154.324" stroke="white" stroke-miterlimit="10"/>
<path d="M220.591 196.003V168.215" stroke="white" stroke-miterlimit="10"/>
<path d="M130.702 161.571V145.063L144.909 136.816L159.283 145.063V161.571L144.909 169.818L130.702 161.571Z" fill="#18181C" stroke="white" stroke-miterlimit="10"/>
<path d="M130.702 145.063L144.909 153.317L159.283 145.063" stroke="white" stroke-miterlimit="10"/>
<path d="M144.909 169.818V153.317" stroke="white" stroke-miterlimit="10"/>
<path d="M96.2938 228.981V205.83L116.227 194.257L136.387 205.83V228.981L116.227 240.554L96.2938 228.981Z" fill="#18181C" stroke="white" stroke-miterlimit="10"/>
<path d="M96.2938 205.83L116.227 217.408L136.387 205.83" stroke="white" stroke-miterlimit="10"/>
<path d="M116.227 240.554V217.408" stroke="white" stroke-miterlimit="10"/>
<path d="M121.984 114.934V106.686L129.087 102.556L136.274 106.686V114.934L129.087 119.063L121.984 114.934Z" fill="#18181C" stroke="white" stroke-miterlimit="10"/>
<path d="M121.984 106.686L129.087 110.81L136.274 106.686" stroke="white" stroke-miterlimit="10"/>
<path d="M129.087 119.063V110.81" stroke="white" stroke-miterlimit="10"/>
<path d="M253.772 138.103V115.506L273.235 104.201L292.918 115.506V138.103L273.235 149.408L253.772 138.103Z" fill="#18181C" stroke="white" stroke-miterlimit="10"/>
<path d="M253.772 115.506L273.235 126.804L292.918 115.506" stroke="white" stroke-miterlimit="10"/>
<path d="M273.235 149.408V126.804" stroke="white" stroke-miterlimit="10"/>
<path d="M135.857 200.365V158.758L171.684 137.954L207.928 158.758V200.365L171.684 221.169L135.857 200.365Z" fill="#18181C" stroke="white" stroke-miterlimit="10"/>
<path d="M135.857 158.758L171.684 179.561L207.928 158.758" stroke="white" stroke-miterlimit="10"/>
<path d="M171.684 221.169V179.561" stroke="white" stroke-miterlimit="10"/>
<path d="M154.17 126.155V106.317L171.249 96.4004L188.525 106.317V126.155L171.249 136.071L154.17 126.155Z" fill="#18181C" stroke="white" stroke-miterlimit="10"/>
<path d="M154.17 106.317L171.249 116.239L188.525 106.317" stroke="white" stroke-miterlimit="10"/>
<path d="M171.249 136.071V116.239" stroke="white" stroke-miterlimit="10"/>
<path d="M118.438 165.813V145.981L135.517 136.059L152.793 145.981V165.813L135.517 175.736L118.438 165.813Z" fill="#18181C" stroke="white" stroke-miterlimit="10"/>
<path d="M118.438 145.981L135.517 155.897L152.793 145.981" stroke="white" stroke-miterlimit="10"/>
<path d="M135.517 175.735V155.897" stroke="white" stroke-miterlimit="10"/>
<path d="M188.525 212.045V189.901L207.588 178.828L226.878 189.901V212.045L207.588 223.111L188.525 212.045Z" fill="#18181C" stroke="white" stroke-miterlimit="10"/>
<path d="M188.525 189.9L207.588 200.973L226.878 189.9" stroke="white" stroke-miterlimit="10"/>
<path d="M207.588 223.111V200.973" stroke="white" stroke-miterlimit="10"/>
<path d="M164.104 88.7846V65.8476L183.846 54.3821L203.822 65.8476V88.7846L183.846 100.25L164.104 88.7846Z" fill="#18181C" stroke="white" stroke-miterlimit="10"/>
<path d="M164.104 65.8477L183.846 77.3191L203.822 65.8477" stroke="white" stroke-miterlimit="10"/>
<path d="M183.847 100.25V77.3191" stroke="white" stroke-miterlimit="10"/>
<path d="M98.0875 67.9451V44.3764L118.385 32.5891L138.914 44.3764V67.9451L118.385 79.7265L98.0875 67.9451Z" fill="#18181C" stroke="white" stroke-miterlimit="10"/>
<path d="M98.0875 44.3765L118.385 56.1578L138.914 44.3765" stroke="white" stroke-miterlimit="10"/>
<path d="M118.385 79.7267V56.158" stroke="white" stroke-miterlimit="10"/>
<path d="M109.458 211.026V180.974L135.339 165.945L161.517 180.974V211.026L135.339 226.055L109.458 211.026Z" fill="#18181C" stroke="white" stroke-miterlimit="10"/>
<path d="M109.458 180.974L135.339 196.003L161.517 180.974" stroke="white" stroke-miterlimit="10"/>
<path d="M135.339 226.055V196.003" stroke="white" stroke-miterlimit="10"/>
<path d="M53.2682 138.306V114.499L73.7679 102.592L94.512 114.499V138.306L73.7679 150.212L53.2682 138.306Z" fill="#18181C" stroke="white" stroke-miterlimit="10"/>
<path d="M53.2682 114.499L73.7679 126.405L94.512 114.499" stroke="white" stroke-miterlimit="10"/>
<path d="M73.768 150.212V126.405" stroke="white" stroke-miterlimit="10"/>
<path d="M53.2682 100.006V69.7567L79.316 54.6262L105.662 69.7567V100.006L79.316 115.13L53.2682 100.006Z" fill="#18181C" stroke="white" stroke-miterlimit="10"/>
<path d="M53.2682 69.7568L79.316 84.8813L105.662 69.7568" stroke="white" stroke-miterlimit="10"/>
<path d="M79.3159 115.13V84.8813" stroke="white" stroke-miterlimit="10"/>
<path d="M94.512 111.644V84.0827L118.242 70.2991L142.245 84.0827V111.644L118.242 125.422L94.512 111.644Z" fill="#18181C" stroke="white" stroke-miterlimit="10"/>
<path d="M94.512 84.0828L118.242 97.8605L142.245 84.0828" stroke="white" stroke-miterlimit="10"/>
<path d="M118.242 125.422V97.8604" stroke="white" stroke-miterlimit="10"/>
<path d="M182.381 168.143V124.444L220.013 102.592L258.081 124.444V168.143L220.013 189.996L182.381 168.143Z" fill="#18181C" stroke="white" stroke-miterlimit="10"/>
<path d="M182.381 124.445L220.013 146.291L258.081 124.445" stroke="white" stroke-miterlimit="10"/>
<path d="M220.013 189.996V146.291" stroke="white" stroke-miterlimit="10"/>
<path d="M88.4097 179.961V136.256L126.036 114.403L164.104 136.256V179.961L126.036 201.813L88.4097 179.961Z" fill="#18181C" stroke="white" stroke-miterlimit="10"/>
<path d="M88.4097 136.256L126.036 158.108L164.104 136.256" stroke="white" stroke-miterlimit="10"/>
<path d="M126.036 201.813V158.108" stroke="white" stroke-miterlimit="10"/>
<path d="M131.161 249.022V201.128L172.399 177.177L214.119 201.128V249.022L172.399 272.972L131.161 249.022Z" fill="#18181C" stroke="white" stroke-miterlimit="10"/>
<path d="M131.161 201.128L172.399 225.072L214.119 201.128" stroke="white" stroke-miterlimit="10"/>
<path d="M172.399 272.972V225.072" stroke="white" stroke-miterlimit="10"/>
<path d="M97.8313 166.147V142.471L118.212 130.636L138.837 142.471V166.147L118.212 177.988L97.8313 166.147Z" fill="#18181C" stroke="white" stroke-miterlimit="10"/>
<path d="M97.8313 142.471L118.212 154.312L138.837 142.471" stroke="white" stroke-miterlimit="10"/>
<path d="M118.212 177.988V154.312" stroke="white" stroke-miterlimit="10"/>
<path d="M161.368 192.26V170.682L179.949 159.896L198.745 170.682V192.26L179.949 203.052L161.368 192.26Z" fill="#18181C" stroke="white" stroke-miterlimit="10"/>
<path d="M161.368 170.682L179.949 181.474L198.745 170.682" stroke="white" stroke-miterlimit="10"/>
<path d="M179.949 203.052V181.474" stroke="white" stroke-miterlimit="10"/>
<path d="M66.7421 166.689V158.436L73.8454 154.312L81.0323 158.436V166.689L73.8454 170.813L66.7421 166.689Z" fill="#18181C" stroke="white" stroke-miterlimit="10"/>
<path d="M66.7421 158.436L73.8454 162.56L81.0323 158.436" stroke="white" stroke-miterlimit="10"/>
<path d="M73.8455 170.813V162.56" stroke="white" stroke-miterlimit="10"/>
<path d="M135.392 74.6015V61.6998L146.5 55.252L157.739 61.6998V74.6015L146.5 81.0554L135.392 74.6015Z" fill="#18181C" stroke="white" stroke-miterlimit="10"/>
<path d="M135.392 61.7L146.5 68.1538L157.739 61.7" stroke="white" stroke-miterlimit="10"/>
<path d="M146.5 81.0555V68.1538" stroke="white" stroke-miterlimit="10"/>
<path d="M196.122 90.5307V77.629L207.236 71.1812L218.476 77.629V90.5307L207.236 96.9845L196.122 90.5307Z" fill="#18181C" stroke="white" stroke-miterlimit="10"/>
<path d="M196.122 77.6289L207.236 84.0827L218.476 77.6289" stroke="white" stroke-miterlimit="10"/>
<path d="M207.237 96.9845V84.0828" stroke="white" stroke-miterlimit="10"/>
<path d="M131.37 105.685V87.116L147.358 77.8315L163.532 87.116V105.685L147.358 114.969L131.37 105.685Z" fill="#18181C" stroke="white" stroke-miterlimit="10"/>
<path d="M131.37 87.116L147.358 96.4004L163.532 87.116" stroke="white" stroke-miterlimit="10"/>
<path d="M147.358 114.969V96.4004" stroke="white" stroke-miterlimit="10"/>
<path d="M255.321 108.557V100.31L262.425 96.1799L269.612 100.31V108.557L262.425 112.687L255.321 108.557Z" fill="#18181C" stroke="white" stroke-miterlimit="10"/>
<path d="M255.321 100.31L262.425 104.433L269.612 100.31" stroke="white" stroke-miterlimit="10"/>
<path d="M262.425 112.687V104.434" stroke="white" stroke-miterlimit="10"/>
<path d="M131.078 187.66V179.412L138.181 175.282L145.368 179.412V187.66L138.181 191.789L131.078 187.66Z" fill="#18181C" stroke="white" stroke-miterlimit="10"/>
<path d="M131.078 179.412L138.181 183.536L145.368 179.412" stroke="white" stroke-miterlimit="10"/>
<path d="M138.181 191.79V183.536" stroke="white" stroke-miterlimit="10"/>
<path d="M149.158 193.077V172.768L166.642 162.613L184.335 172.768V193.077L166.642 203.231L149.158 193.077Z" fill="#18181C" stroke="white" stroke-miterlimit="10"/>
<path d="M149.158 172.768L166.642 182.922L184.335 172.768" stroke="white" stroke-miterlimit="10"/>
<path d="M166.642 203.231V182.922" stroke="white" stroke-miterlimit="10"/>
<path d="M193.28 182.273V171.26L202.761 165.754L212.349 171.26V182.273L202.761 187.773L193.28 182.273Z" fill="#18181C" stroke="white" stroke-miterlimit="10"/>
<path d="M193.28 171.26L202.761 176.766L212.349 171.26" stroke="white" stroke-miterlimit="10"/>
<path d="M202.761 187.773V176.766" stroke="white" stroke-miterlimit="10"/>
<path d="M94.512 117.55V95.8165L113.218 84.9529L132.15 95.8165V117.55L113.218 128.413L94.512 117.55Z" fill="#18181C" stroke="white" stroke-miterlimit="10"/>
<path d="M94.512 95.8164L113.218 106.686L132.15 95.8164" stroke="white" stroke-miterlimit="10"/>
<path d="M113.218 128.413V106.686" stroke="white" stroke-miterlimit="10"/>
<path d="M236.443 102.288V69.6794L264.516 53.375L292.918 69.6794V102.288L264.516 118.593L236.443 102.288Z" fill="#18181C" stroke="white" stroke-miterlimit="10"/>
<path d="M236.443 69.6792L264.516 85.9836L292.918 69.6792" stroke="white" stroke-miterlimit="10"/>
<path d="M264.516 118.592V85.9836" stroke="white" stroke-miterlimit="10"/>
<path d="M207.928 117.115V93.2778L228.451 81.3594L249.213 93.2778V117.115L228.451 129.033L207.928 117.115Z" fill="#18181C" stroke="white" stroke-miterlimit="10"/>
<path d="M207.928 93.2778L228.451 105.196L249.213 93.2778" stroke="white" stroke-miterlimit="10"/>
<path d="M228.451 129.033V105.196" stroke="white" stroke-miterlimit="10"/>
<path d="M127.913 163.126V112.854L171.201 87.7178L214.995 112.854V163.126L171.201 188.268L127.913 163.126Z" fill="#18181C" stroke="white" stroke-miterlimit="10"/>
<path d="M127.913 112.854L171.201 137.99L214.995 112.854" stroke="white" stroke-miterlimit="10"/>
<path d="M171.201 188.268V137.99" stroke="white" stroke-miterlimit="10"/>
<defs>
<linearGradient id="paint0_linear_350_1848" x1="173.144" y1="86.454" x2="173.144" y2="321.695" gradientUnits="userSpaceOnUse">
<stop offset="0.0729167" stop-color="#FFBAAA"/>
<stop offset="0.526042" stop-color="#FB6E4E"/>
<stop offset="0.916667" stop-color="#FB6E4E"/>
</linearGradient>
</defs>
</svg>
