<svg width="99" height="98" viewBox="0 0 99 98" fill="none" xmlns="http://www.w3.org/2000/svg">
<path d="M7.7854 14.569C3.76845 14.569 0.5 11.3006 0.5 7.28361C0.5 3.26667 3.76845 0 7.7854 0C11.8023 0 15.069 3.26845 15.069 7.28361C15.069 11.2988 11.8023 14.5672 7.7854 14.5672V14.569ZM7.7854 0.903546C4.26567 0.901764 1.40176 3.76567 1.40176 7.28361C1.40176 10.8016 4.26388 13.6655 7.78361 13.6655C11.3033 13.6655 14.1655 10.8033 14.1655 7.28361C14.1655 3.76388 11.3033 0.901764 7.7854 0.901764V0.903546Z" fill="white"/>
<path d="M7.78361 11.1455C9.91648 11.1455 11.6455 9.41648 11.6455 7.28361C11.6455 5.15074 9.91648 3.42171 7.78361 3.42171C5.65074 3.42171 3.92171 5.15074 3.92171 7.28361C3.92171 9.41648 5.65074 11.1455 7.78361 11.1455Z" fill="white"/>
<path d="M91.2164 14.569C87.1994 14.569 83.9328 11.3006 83.9328 7.2854C83.9328 3.27023 87.1994 0 91.2164 0C95.2333 0 98.5 3.26845 98.5 7.28361C98.5 11.2988 95.2333 14.5672 91.2164 14.5672V14.569ZM91.2164 0.903546C87.6984 0.903546 84.8345 3.76567 84.8345 7.2854C84.8345 10.8051 87.6967 13.6672 91.2164 13.6672C94.7361 13.6672 97.5982 10.8051 97.5982 7.2854C97.5982 3.76567 94.7361 0.903546 91.2164 0.903546Z" fill="white"/>
<path d="M91.2164 11.1455C93.3492 11.1455 95.0783 9.41648 95.0783 7.28361C95.0783 5.15074 93.3492 3.42171 91.2164 3.42171C89.0835 3.42171 87.3545 5.15074 87.3545 7.28361C87.3545 9.41648 89.0835 11.1455 91.2164 11.1455Z" fill="white"/>
<path d="M49.5 14.569C45.4831 14.569 42.2146 11.3006 42.2146 7.2854C42.2146 3.27023 45.4831 0 49.5 0C53.5169 0 56.7836 3.26845 56.7836 7.28361C56.7836 11.2988 53.5169 14.5672 49.5 14.5672V14.569ZM49.5 0.903546C45.9803 0.903546 43.1181 3.76567 43.1181 7.2854C43.1181 10.8051 45.9803 13.6672 49.5 13.6672C53.0197 13.6672 55.8819 10.8051 55.8819 7.2854C55.8819 3.76567 53.0197 0.903546 49.5 0.903546Z" fill="white"/>
<path d="M49.5 11.1455C51.6329 11.1455 53.3619 9.41648 53.3619 7.28361C53.3619 5.15074 51.6329 3.42171 49.5 3.42171C47.3671 3.42171 45.6381 5.15074 45.6381 7.28361C45.6381 9.41648 47.3671 11.1455 49.5 11.1455Z" fill="white"/>
<path d="M7.7854 56.2836C3.76845 56.2836 0.5 53.0152 0.5 49C0.5 44.9848 3.76845 41.7164 7.7854 41.7164C11.8023 41.7164 15.069 44.9848 15.069 49C15.069 53.0152 11.8023 56.2836 7.7854 56.2836ZM7.7854 42.6181C4.26567 42.6181 1.40355 45.4803 1.40355 49C1.40355 52.5197 4.26567 55.3819 7.7854 55.3819C11.3051 55.3819 14.1672 52.5197 14.1672 49C14.1672 45.4803 11.3051 42.6181 7.7854 42.6181Z" fill="white"/>
<path d="M7.78361 52.8619C9.91648 52.8619 11.6455 51.1329 11.6455 49C11.6455 46.8671 9.91648 45.1381 7.78361 45.1381C5.65074 45.1381 3.92171 46.8671 3.92171 49C3.92171 51.1329 5.65074 52.8619 7.78361 52.8619Z" fill="white"/>
<path d="M91.2164 56.2836C87.1994 56.2836 83.9328 53.0152 83.9328 49C83.9328 44.9848 87.1994 41.7164 91.2164 41.7164C95.2333 41.7164 98.5 44.9848 98.5 49C98.5 53.0152 95.2333 56.2836 91.2164 56.2836ZM91.2164 42.6181C87.6984 42.6181 84.8345 45.4803 84.8345 49C84.8345 52.5197 87.6967 55.3819 91.2164 55.3819C94.7361 55.3819 97.5982 52.5197 97.5982 49C97.5982 45.4803 94.7361 42.6181 91.2164 42.6181Z" fill="white"/>
<path d="M91.2164 52.8619C93.3493 52.8619 95.0783 51.1329 95.0783 49C95.0783 46.8671 93.3493 45.1381 91.2164 45.1381C89.0835 45.1381 87.3545 46.8671 87.3545 49C87.3545 51.1329 89.0835 52.8619 91.2164 52.8619Z" fill="white"/>
<path d="M49.5 56.2836C45.4831 56.2836 42.2146 53.0152 42.2146 49C42.2146 44.9848 45.4831 41.7164 49.5 41.7164C53.5169 41.7164 56.7836 44.9848 56.7836 49C56.7836 53.0152 53.5169 56.2836 49.5 56.2836ZM49.5 42.6181C45.9803 42.6181 43.1181 45.4803 43.1181 49C43.1181 52.5197 45.9803 55.3819 49.5 55.3819C53.0197 55.3819 55.8819 52.5197 55.8819 49C55.8819 45.4803 53.0197 42.6181 49.5 42.6181Z" fill="white"/>
<path d="M49.5 52.8619C51.6329 52.8619 53.3619 51.1329 53.3619 49C53.3619 46.8671 51.6329 45.1381 49.5 45.1381C47.3671 45.1381 45.6381 46.8671 45.6381 49C45.6381 51.1329 47.3671 52.8619 49.5 52.8619Z" fill="white"/>
<path d="M7.7854 98C3.76845 98 0.5 94.7316 0.5 90.7164C0.5 86.7012 3.76845 83.4328 7.7854 83.4328C11.8023 83.4328 15.069 86.7012 15.069 90.7164C15.069 94.7316 11.8023 98 7.7854 98ZM7.7854 84.3345C4.26567 84.3345 1.40355 87.1967 1.40355 90.7164C1.40355 94.2361 4.26567 97.0982 7.7854 97.0982C11.3051 97.0982 14.1672 94.2361 14.1672 90.7164C14.1672 87.1967 11.3051 84.3345 7.7854 84.3345Z" fill="white"/>
<path d="M7.78361 94.5765C9.91648 94.5765 11.6455 92.8475 11.6455 90.7146C11.6455 88.5817 9.91648 86.8527 7.78361 86.8527C5.65074 86.8527 3.92171 88.5817 3.92171 90.7146C3.92171 92.8475 5.65074 94.5765 7.78361 94.5765Z" fill="white"/>
<path d="M91.2164 98C87.1994 98 83.9328 94.7315 83.9328 90.7164C83.9328 86.7012 87.1994 83.4328 91.2164 83.4328C95.2333 83.4328 98.5 86.7012 98.5 90.7164C98.5 94.7315 95.2333 98 91.2164 98ZM91.2164 84.3345C87.6984 84.3345 84.8345 87.1966 84.8345 90.7164C84.8345 94.2361 87.6967 97.0982 91.2164 97.0982C94.7361 97.0982 97.5982 94.2361 97.5982 90.7164C97.5982 87.1966 94.7361 84.3345 91.2164 84.3345Z" fill="white"/>
<path d="M91.2164 94.5765C93.3492 94.5765 95.0783 92.8475 95.0783 90.7146C95.0783 88.5817 93.3492 86.8527 91.2164 86.8527C89.0835 86.8527 87.3545 88.5817 87.3545 90.7146C87.3545 92.8475 89.0835 94.5765 91.2164 94.5765Z" fill="white"/>
<path d="M49.5 98C45.4831 98 42.2146 94.7315 42.2146 90.7164C42.2146 86.7012 45.4831 83.4328 49.5 83.4328C53.5169 83.4328 56.7836 86.7012 56.7836 90.7164C56.7836 94.7315 53.5169 98 49.5 98ZM49.5 84.3345C45.9803 84.3345 43.1181 87.1966 43.1181 90.7164C43.1181 94.2361 45.9803 97.0982 49.5 97.0982C53.0197 97.0982 55.8819 94.2361 55.8819 90.7164C55.8819 87.1966 53.0197 84.3345 49.5 84.3345Z" fill="white"/>
<path d="M49.5 94.5765C51.6329 94.5765 53.3619 92.8475 53.3619 90.7146C53.3619 88.5817 51.6329 86.8527 49.5 86.8527C47.3671 86.8527 45.6381 88.5817 45.6381 90.7146C45.6381 92.8475 47.3671 94.5765 49.5 94.5765Z" fill="white"/>
<path d="M49.5 91.1673C49.3289 91.1673 49.1739 91.071 49.0972 90.9178L35.4728 63.667L8.1044 91.0354C7.94757 91.1922 7.69985 91.2118 7.52164 91.0817C7.34164 90.9534 7.28283 90.7128 7.38263 90.515L28.1392 49L7.38085 7.48678C7.28283 7.28896 7.34164 7.04837 7.51986 6.92006C7.69985 6.78996 7.94757 6.81135 8.10262 6.96639L35.471 34.333L49.0972 7.08223C49.2505 6.77749 49.7513 6.77749 49.9045 7.08223L63.529 34.333L90.8974 6.96461C91.0524 6.80778 91.3001 6.78818 91.4801 6.91828C91.6601 7.04659 91.7189 7.28718 91.6191 7.485L70.8625 48.9982L91.6191 90.5132C91.7172 90.711 91.6584 90.9516 91.4801 91.0799C91.3001 91.21 91.0542 91.1904 90.8974 91.0336L63.529 63.6652L49.9045 90.916C49.8279 91.0692 49.6711 91.1655 49.5018 91.1655L49.5 91.1673ZM36.1428 62.9934L49.5 89.7059L62.8572 62.9934L49.5 49.638L36.1428 62.9934ZM63.9532 62.8152L89.5679 88.4299L70.3582 50.0087L63.955 62.8152H63.9532ZM28.64 50.0087L9.4321 88.4299L35.0468 62.8152L28.6436 50.0087H28.64ZM50.1362 49L63.2795 62.1433L69.8521 49L63.2795 35.8567L50.1362 49ZM29.1444 49L35.7169 62.1433L48.8602 49L35.7169 35.8567L29.1444 49ZM36.1411 35.0066L49.4982 48.362L62.8554 35.0066L49.5 8.29231L36.1428 35.0048L36.1411 35.0066ZM63.9514 35.1848L70.3546 47.9913L89.5697 9.5701L63.955 35.1848H63.9514ZM9.4321 9.5701L28.6418 47.9913L35.045 35.1848L9.4321 9.5701Z" fill="white"/>
<path d="M49.5 91.1673C49.3806 91.1673 49.2648 91.1191 49.181 91.0354L7.46461 49.319C7.38085 49.2352 7.33273 49.1194 7.33273 49C7.33273 48.8806 7.38085 48.7648 7.46461 48.681L49.181 6.96461C49.3574 6.78818 49.6426 6.78818 49.819 6.96461L91.5354 48.6792C91.6191 48.763 91.6673 48.8788 91.6673 48.9982C91.6673 49.1176 91.6191 49.2335 91.5354 49.3172L49.819 91.0336C49.7352 91.1174 49.6194 91.1655 49.5 91.1655V91.1673ZM8.4234 49L49.5018 90.0784L90.5802 49L49.5 7.92162L8.4234 49Z" fill="white"/>
<path d="M49.5 91.1673C49.3806 91.1673 49.2648 91.1191 49.181 91.0354L28.3228 70.1772C28.1464 70.0008 28.1464 69.7156 28.3228 69.5392L49.181 48.681C49.2648 48.5972 49.3806 48.5491 49.5 48.5491C49.6194 48.5491 49.7352 48.5972 49.819 48.681L70.6772 69.5392C70.8536 69.7156 70.8536 70.0008 70.6772 70.1772L49.819 91.0354C49.7352 91.1192 49.6194 91.1673 49.5 91.1673ZM29.2798 69.8582L49.5 90.0784L69.7202 69.8582L49.5 49.638L29.2798 69.8582Z" fill="white"/>
<path d="M91.2164 48.5473H7.7854V49.4491H91.2164V48.5473Z" fill="white"/>
<path d="M91.2164 6.83273H7.7854V7.7345H91.2164V6.83273Z" fill="white"/>
<path d="M91.2164 90.2637H7.7854V91.1655H91.2164V90.2637Z" fill="white"/>
</svg>
