<svg width="496" height="422" viewBox="0 0 496 422" fill="none" xmlns="http://www.w3.org/2000/svg">
<path d="M1 114.062L49.3136 142.399L142.145 89.6339L93.1492 60.8943L1 114.062Z" fill="#18181C" stroke="white" stroke-width="0.7" stroke-miterlimit="10"/>
<path d="M1 144.729L49.3136 173.066V142.399L1 114.062V144.729Z" fill="#18181C" stroke="white" stroke-width="0.7" stroke-miterlimit="10"/>
<path d="M49.3137 173.19L142.594 120.046V89.2393L49.3137 142.399V173.19Z" fill="#18181C" stroke="white" stroke-width="0.7" stroke-miterlimit="10"/>
<path d="M12.4199 145.828L15.116 147.369V129.334L12.4199 127.793V145.828Z" fill="#18181C" stroke="white" stroke-width="0.7" stroke-miterlimit="10"/>
<path d="M12.4199 145.828L15.116 147.369V142.252L12.4199 140.72V145.828Z" fill="#18181C" stroke="white" stroke-width="0.7" stroke-miterlimit="10"/>
<path d="M12.4199 135.418L15.116 136.958V129.334L12.4199 127.793V135.418Z" fill="#18181C" stroke="white" stroke-width="0.7" stroke-miterlimit="10"/>
<path d="M16.867 148.352L19.5709 149.892V131.865L16.867 130.325V148.352Z" fill="#18181C" stroke="white" stroke-width="0.7" stroke-miterlimit="10"/>
<path d="M16.867 135.441L19.5709 136.981V131.865L16.867 130.325V135.441Z" fill="#18181C" stroke="white" stroke-width="0.7" stroke-miterlimit="10"/>
<path d="M16.867 148.352L19.5709 149.892V142.276L16.867 140.735V148.352Z" fill="#18181C" stroke="white" stroke-width="0.7" stroke-miterlimit="10"/>
<path d="M21.283 150.852L23.9869 152.392V134.357L21.283 132.817V150.852Z" fill="#18181C" stroke="white" stroke-width="0.7" stroke-miterlimit="10"/>
<path d="M21.283 140.441L23.9869 141.981V134.357L21.283 132.817V140.441Z" fill="#18181C" stroke="white" stroke-width="0.7" stroke-miterlimit="10"/>
<path d="M25.7302 153.375L28.4341 154.916V136.888L25.7302 135.348V153.375Z" fill="#18181C" stroke="white" stroke-width="0.7" stroke-miterlimit="10"/>
<path d="M25.7302 140.464L28.4341 142.005V136.888L25.7302 135.348V140.464Z" fill="#18181C" stroke="white" stroke-width="0.7" stroke-miterlimit="10"/>
<path d="M30.1462 155.875L32.8501 157.408V139.381L30.1462 137.84V155.875Z" fill="#18181C" stroke="white" stroke-width="0.7" stroke-miterlimit="10"/>
<path d="M30.1462 145.465L32.8501 147.005V139.381L30.1462 137.84V145.465Z" fill="#18181C" stroke="white" stroke-width="0.7" stroke-miterlimit="10"/>
<path d="M34.6011 158.399L37.305 159.939V141.912L34.6011 140.372V158.399Z" fill="#18181C" stroke="white" stroke-width="0.7" stroke-miterlimit="10"/>
<path d="M34.6011 145.488L37.305 147.02V141.912L34.6011 140.372V145.488Z" fill="#18181C" stroke="white" stroke-width="0.7" stroke-miterlimit="10"/>
<path d="M39.0094 160.891L41.7133 162.431V144.404L39.0094 142.864V160.891Z" fill="#18181C" stroke="white" stroke-width="0.7" stroke-miterlimit="10"/>
<path d="M39.0094 150.488L41.7133 152.021V144.404L39.0094 142.864V150.488Z" fill="#18181C" stroke="white" stroke-width="0.7" stroke-miterlimit="10"/>
<path d="M90.4531 143.707L139.263 115.897V97.8618L90.4531 125.68V143.707Z" fill="#18181C" stroke="white" stroke-width="0.7" stroke-miterlimit="10"/>
<path d="M93.5598 132.933L96.2172 131.408V128.722L93.5598 130.24V132.933Z" fill="#18181C" stroke="white" stroke-width="0.7" stroke-miterlimit="10"/>
<path d="M97.3406 134.713L100.006 133.196V130.51L97.3406 132.027V134.713Z" fill="#18181C" stroke="white" stroke-width="0.7" stroke-miterlimit="10"/>
<path d="M101.129 124.767L103.794 123.25V120.564L101.129 122.081V124.767Z" fill="#18181C" stroke="white" stroke-width="0.7" stroke-miterlimit="10"/>
<path d="M104.925 122.639L107.583 121.121V118.436L104.925 119.953V122.639Z" fill="#18181C" stroke="white" stroke-width="0.7" stroke-miterlimit="10"/>
<path d="M104.925 130.456L107.583 128.939V126.253L104.925 127.77V130.456Z" fill="#18181C" stroke="white" stroke-width="0.7" stroke-miterlimit="10"/>
<path d="M112.394 126.23L115.059 124.713V122.027L112.394 123.536V126.23Z" fill="#18181C" stroke="white" stroke-width="0.7" stroke-miterlimit="10"/>
<path d="M116.182 116.284L118.848 114.767V112.081L116.182 113.598V116.284Z" fill="#18181C" stroke="white" stroke-width="0.7" stroke-miterlimit="10"/>
<path d="M230.978 232.651C222.494 232.651 214.569 233.402 207.356 234.726H164.953V250.926H165.008C166.053 264.882 192.844 280.06 230.978 280.06C269.111 280.06 295.91 264.882 296.948 250.926H296.995V234.726H254.6C247.387 233.402 239.461 232.651 230.978 232.651Z" fill="url(#paint0_linear_350_1102)"/>
<path d="M76.4998 148.073L163.427 199.693" stroke="white" stroke-width="3.7" stroke-miterlimit="10" stroke-linecap="round"/>
<path d="M285.435 260.965L318.633 280.974C320.229 281.941 322.228 281.949 323.832 281.005L340.482 271.229C343.743 269.309 347.811 269.294 351.088 271.182L374.633 284.735" stroke="white" stroke-width="3.7" stroke-miterlimit="10" stroke-linecap="round"/>
<path d="M193.697 268.512L165.914 285.238C164.334 286.191 163.396 287.855 163.404 289.697C163.412 291.539 164.357 293.195 165.945 294.14L201.839 315.472C205.589 317.701 207.828 321.641 207.82 325.999C207.82 330.357 205.574 334.289 201.816 336.51L154.277 364.638" stroke="white" stroke-width="3.7" stroke-miterlimit="10" stroke-linecap="round"/>
<path d="M76.499 148.074L163.426 199.694" stroke="#18181C" stroke-width="2" stroke-miterlimit="10" stroke-linecap="round"/>
<path d="M285.434 260.964L318.632 280.973C320.228 281.941 322.227 281.948 323.83 281.004L340.48 271.228C343.742 269.308 347.809 269.293 351.086 271.182L374.631 284.735" stroke="#18181C" stroke-width="2" stroke-miterlimit="10" stroke-linecap="round"/>
<path d="M193.697 268.512L165.914 285.238C164.333 286.191 163.396 287.855 163.404 289.697C163.411 291.539 164.357 293.195 165.945 294.14L201.839 315.472C205.589 317.701 207.828 321.641 207.82 325.999C207.82 330.357 205.574 334.289 201.816 336.51L154.277 364.638" stroke="#18181C" stroke-width="2" stroke-miterlimit="10" stroke-linecap="round"/>
<path d="M230.978 210.738C220.534 210.738 210.78 211.659 201.901 213.293L149.714 204.089V233.232H149.776C151.062 250.407 184.035 269.092 230.978 269.092C277.92 269.092 310.894 250.407 312.18 233.232H312.234V204.089L260.054 213.293C251.183 211.667 241.421 210.738 230.978 210.738Z" fill="#18181C" stroke="white" stroke-width="0.7" stroke-miterlimit="10"/>
<path d="M230.978 166.116C183.09 166.116 149.722 185.559 149.722 203.014C149.722 220.468 183.098 239.904 230.978 239.904C278.858 239.904 312.234 220.46 312.234 203.014C312.234 185.567 278.865 166.116 230.978 166.116Z" fill="#18181C" stroke="white" stroke-width="0.7" stroke-miterlimit="10"/>
<path d="M230.978 182.672C222.494 182.672 214.569 183.423 207.356 184.747H164.953V200.947H165.008C166.053 214.903 192.844 230.081 230.978 230.081C269.111 230.081 295.91 214.903 296.948 200.947H296.995V184.747H254.6C247.387 183.423 239.461 182.672 230.978 182.672Z" fill="url(#paint1_linear_350_1102)"/>
<path d="M230.978 159.25C220.534 159.25 210.78 160.179 201.901 161.804L149.714 152.609V181.751H149.776C151.062 198.927 184.035 217.612 230.978 217.612C277.92 217.612 310.894 198.927 312.18 181.751H312.234V152.609L260.054 161.804C251.183 160.179 241.421 159.25 230.978 159.25Z" fill="#18181C" stroke="white" stroke-width="0.7" stroke-miterlimit="10"/>
<path d="M230.978 114.635C183.09 114.635 149.722 134.079 149.722 151.533C149.722 168.987 183.098 188.431 230.978 188.431C278.858 188.431 312.234 168.987 312.234 151.533C312.234 134.079 278.865 114.635 230.978 114.635Z" fill="#18181C" stroke="white" stroke-width="0.7" stroke-miterlimit="10"/>
<path d="M298.459 181.635C296.824 182.657 295.809 185.157 296.181 187.231C296.553 189.306 298.18 190.172 299.815 189.151C301.442 188.137 302.464 185.629 302.092 183.555C301.721 181.48 300.094 180.613 298.467 181.635H298.459Z" fill="#18181C" stroke="white" stroke-width="0.7" stroke-miterlimit="10"/>
<path d="M275.743 192.169C274.116 193.191 273.093 195.691 273.465 197.766C273.837 199.84 275.464 200.707 277.091 199.685C278.726 198.671 279.741 196.163 279.369 194.081C278.997 192.007 277.37 191.148 275.743 192.162V192.169Z" fill="#18181C" stroke="white" stroke-width="0.7" stroke-miterlimit="10"/>
<path d="M287.767 188.052C286.163 189.042 285.164 191.504 285.536 193.54C285.9 195.575 287.496 196.419 289.092 195.42C290.688 194.422 291.687 191.968 291.323 189.933C290.959 187.897 289.363 187.053 287.767 188.052Z" fill="white" stroke="white" stroke-width="0.7" stroke-miterlimit="10"/>
<path d="M230.978 124.96C222.494 124.96 214.569 125.711 207.356 127.035H164.953V143.235H165.008C166.053 157.191 192.844 172.37 230.978 172.37C269.111 172.37 295.91 157.191 296.948 143.235H296.995V127.035H254.6C247.387 125.711 239.461 124.96 230.978 124.96Z" fill="url(#paint2_linear_350_1102)"/>
<path d="M21.283 150.852L23.9869 152.392V147.276L21.283 145.735V150.852Z" fill="#18181C" stroke="white" stroke-width="0.7" stroke-miterlimit="10"/>
<path d="M25.7302 153.375L28.4341 154.916V147.299L25.7302 145.759V153.375Z" fill="#18181C" stroke="white" stroke-width="0.7" stroke-miterlimit="10"/>
<path d="M30.1462 155.875L32.8501 157.408V152.299L30.1462 150.759V155.875Z" fill="#18181C" stroke="white" stroke-width="0.7" stroke-miterlimit="10"/>
<path d="M34.6011 158.399L37.305 159.939V152.322L34.6011 150.774V158.399Z" fill="#18181C" stroke="white" stroke-width="0.7" stroke-miterlimit="10"/>
<path d="M39.0094 160.891L41.7133 162.431V157.323L39.0094 155.775V160.891Z" fill="#18181C" stroke="white" stroke-width="0.7" stroke-miterlimit="10"/>
<path d="M298.459 233.379C296.824 234.393 295.809 236.9 296.181 238.983C296.553 241.065 298.18 241.916 299.815 240.902C301.442 239.88 302.464 237.38 302.092 235.298C301.721 233.224 300.094 232.357 298.467 233.379H298.459Z" fill="#18181C" stroke="white" stroke-width="0.7" stroke-miterlimit="10"/>
<path d="M275.743 243.913C274.116 244.927 273.093 247.435 273.465 249.509C273.837 251.584 275.464 252.451 277.091 251.437C278.726 250.415 279.741 247.915 279.369 245.833C278.997 243.758 277.37 242.892 275.743 243.913Z" fill="#18181C" stroke="white" stroke-width="0.7" stroke-miterlimit="10"/>
<path d="M353.513 294.272L401.819 322.609L494.65 269.843L445.662 241.111L353.513 294.272Z" fill="#18181C" stroke="white" stroke-width="0.7" stroke-miterlimit="10"/>
<path d="M353.513 324.938L401.819 353.276V322.609L353.513 294.271V324.938Z" fill="#18181C" stroke="white" stroke-width="0.7" stroke-miterlimit="10"/>
<path d="M401.819 353.407L495.107 300.255V269.448L401.819 322.608V353.407Z" fill="#18181C" stroke="white" stroke-width="0.7" stroke-miterlimit="10"/>
<path d="M407.374 343.856L456.191 316.045V298.018L407.374 325.829V343.856Z" fill="#18181C" stroke="white" stroke-width="0.7" stroke-miterlimit="10"/>
<path d="M364.925 326.038L367.629 327.578V309.551L364.925 308.01V326.038Z" fill="#18181C" stroke="white" stroke-width="0.7" stroke-miterlimit="10"/>
<path d="M364.925 326.038L367.629 327.578V322.462L364.925 320.921V326.038Z" fill="#18181C" stroke="white" stroke-width="0.7" stroke-miterlimit="10"/>
<path d="M364.925 315.635L367.629 317.167V309.551L364.925 308.01V315.635Z" fill="#18181C" stroke="white" stroke-width="0.7" stroke-miterlimit="10"/>
<path d="M369.38 328.569L372.076 330.109V312.074L369.38 310.542V328.569Z" fill="#18181C" stroke="white" stroke-width="0.7" stroke-miterlimit="10"/>
<path d="M369.38 315.65L372.076 317.19V312.074L369.38 310.542V315.65Z" fill="#18181C" stroke="white" stroke-width="0.7" stroke-miterlimit="10"/>
<path d="M369.38 328.569L372.076 330.109V322.485L369.38 320.952V328.569Z" fill="#18181C" stroke="white" stroke-width="0.7" stroke-miterlimit="10"/>
<path d="M373.796 331.069L376.492 332.601V314.574L373.796 313.034V331.069Z" fill="#18181C" stroke="white" stroke-width="0.7" stroke-miterlimit="10"/>
<path d="M373.796 331.069L376.492 332.601V327.485L373.796 325.945V331.069Z" fill="#18181C" stroke="white" stroke-width="0.7" stroke-miterlimit="10"/>
<path d="M373.796 320.65L376.492 322.191V314.574L373.796 313.034V320.65Z" fill="#18181C" stroke="white" stroke-width="0.7" stroke-miterlimit="10"/>
<path d="M378.243 333.592L380.939 335.132V317.097L378.243 315.557V333.592Z" fill="#18181C" stroke="white" stroke-width="0.7" stroke-miterlimit="10"/>
<path d="M378.243 320.673L380.939 322.214V317.097L378.243 315.557V320.673Z" fill="#18181C" stroke="white" stroke-width="0.7" stroke-miterlimit="10"/>
<path d="M378.243 333.592L380.939 335.132V327.508L378.243 325.968V333.592Z" fill="#18181C" stroke="white" stroke-width="0.7" stroke-miterlimit="10"/>
<path d="M382.659 336.084L385.355 337.625V319.59L382.659 318.05V336.084Z" fill="#18181C" stroke="white" stroke-width="0.7" stroke-miterlimit="10"/>
<path d="M382.659 336.084L385.355 337.625V332.508L382.659 330.976V336.084Z" fill="#18181C" stroke="white" stroke-width="0.7" stroke-miterlimit="10"/>
<path d="M382.659 325.674L385.355 327.214V319.59L382.659 318.05V325.674Z" fill="#18181C" stroke="white" stroke-width="0.7" stroke-miterlimit="10"/>
<path d="M387.106 338.608L389.81 340.148V322.121L387.106 320.581V338.608Z" fill="#18181C" stroke="white" stroke-width="0.7" stroke-miterlimit="10"/>
<path d="M387.106 325.697L389.81 327.237V322.121L387.106 320.581V325.697Z" fill="#18181C" stroke="white" stroke-width="0.7" stroke-miterlimit="10"/>
<path d="M387.106 338.608L389.81 340.148V332.532L387.106 330.991V338.608Z" fill="#18181C" stroke="white" stroke-width="0.7" stroke-miterlimit="10"/>
<path d="M391.522 341.108L394.218 342.648V324.613L391.522 323.073V341.108Z" fill="#18181C" stroke="white" stroke-width="0.7" stroke-miterlimit="10"/>
<path d="M391.522 341.108L394.218 342.648V337.532L391.522 335.991V341.108Z" fill="#18181C" stroke="white" stroke-width="0.7" stroke-miterlimit="10"/>
<path d="M391.522 330.697L394.218 332.238V324.613L391.522 323.073V330.697Z" fill="#18181C" stroke="white" stroke-width="0.7" stroke-miterlimit="10"/>
<path d="M410.48 333.081L413.138 331.564V328.878L410.48 330.395V333.081Z" fill="#18181C" stroke="white" stroke-width="0.7" stroke-miterlimit="10"/>
<path d="M414.269 334.861L416.934 333.344V330.658L414.269 332.176V334.861Z" fill="#18181C" stroke="white" stroke-width="0.7" stroke-miterlimit="10"/>
<path d="M418.057 324.915L420.715 323.398V320.712L418.057 322.229V324.915Z" fill="#18181C" stroke="white" stroke-width="0.7" stroke-miterlimit="10"/>
<path d="M421.846 322.787L424.503 321.27V318.584L421.846 320.101V322.787Z" fill="#18181C" stroke="white" stroke-width="0.7" stroke-miterlimit="10"/>
<path d="M421.846 330.604L424.503 329.095V326.401L421.846 327.918V330.604Z" fill="#18181C" stroke="white" stroke-width="0.7" stroke-miterlimit="10"/>
<path d="M429.322 326.378L431.98 324.861V322.175L429.322 323.692V326.378Z" fill="#18181C" stroke="white" stroke-width="0.7" stroke-miterlimit="10"/>
<path d="M433.103 316.432L435.768 314.915V312.229L433.103 313.746V316.432Z" fill="#18181C" stroke="white" stroke-width="0.7" stroke-miterlimit="10"/>
<path d="M191.279 361.302L142.966 389.639L50.1349 336.866L99.1303 308.134L191.279 361.302Z" fill="#18181C" stroke="white" stroke-width="0.7" stroke-miterlimit="10"/>
<path d="M191.279 391.961L142.966 420.306V389.639L191.279 361.302V391.961Z" fill="#18181C" stroke="white" stroke-width="0.7" stroke-miterlimit="10"/>
<path d="M142.966 420.43L49.6778 367.286V336.471L142.966 389.639V420.43Z" fill="#18181C" stroke="white" stroke-width="0.7" stroke-miterlimit="10"/>
<path d="M137.411 410.879L88.6014 383.068V365.041L137.411 392.859V410.879Z" fill="#18181C" stroke="white" stroke-width="0.7" stroke-miterlimit="10"/>
<path d="M179.86 393.068L177.163 394.601V376.574L179.86 375.033V393.068Z" fill="#18181C" stroke="white" stroke-width="0.7" stroke-miterlimit="10"/>
<path d="M179.86 393.068L177.163 394.601V389.492L179.86 387.952V393.068Z" fill="#18181C" stroke="white" stroke-width="0.7" stroke-miterlimit="10"/>
<path d="M179.86 382.658L177.163 384.198V376.574L179.86 375.033V382.658Z" fill="#18181C" stroke="white" stroke-width="0.7" stroke-miterlimit="10"/>
<path d="M175.413 395.599L172.709 397.132V379.105L175.413 377.564V395.599Z" fill="#18181C" stroke="white" stroke-width="0.7" stroke-miterlimit="10"/>
<path d="M175.413 382.681L172.709 384.213V379.105L175.413 377.564V382.681Z" fill="#18181C" stroke="white" stroke-width="0.7" stroke-miterlimit="10"/>
<path d="M175.413 395.6L172.709 397.132V389.516L175.413 387.975V395.6Z" fill="#18181C" stroke="white" stroke-width="0.7" stroke-miterlimit="10"/>
<path d="M170.996 398.092L168.293 399.632V381.597L170.996 380.057V398.092Z" fill="#18181C" stroke="white" stroke-width="0.7" stroke-miterlimit="10"/>
<path d="M170.996 398.092L168.293 399.632V394.516L170.996 392.976V398.092Z" fill="#18181C" stroke="white" stroke-width="0.7" stroke-miterlimit="10"/>
<path d="M170.996 387.681L168.293 389.222V381.597L170.996 380.057V387.681Z" fill="#18181C" stroke="white" stroke-width="0.7" stroke-miterlimit="10"/>
<path d="M166.549 400.615L163.845 402.155V384.128L166.549 382.588V400.615Z" fill="#18181C" stroke="white" stroke-width="0.7" stroke-miterlimit="10"/>
<path d="M166.549 387.696L163.845 389.237V384.128L166.549 382.588V387.696Z" fill="#18181C" stroke="white" stroke-width="0.7" stroke-miterlimit="10"/>
<path d="M166.549 400.615L163.845 402.155V394.539L166.549 392.999V400.615Z" fill="#18181C" stroke="white" stroke-width="0.7" stroke-miterlimit="10"/>
<path d="M162.133 403.115L159.429 404.648V386.621L162.133 385.081V403.115Z" fill="#18181C" stroke="white" stroke-width="0.7" stroke-miterlimit="10"/>
<path d="M162.133 392.705L159.429 394.245V386.621L162.133 385.081V392.705Z" fill="#18181C" stroke="white" stroke-width="0.7" stroke-miterlimit="10"/>
<path d="M157.679 405.638L154.975 407.179V389.152L157.679 387.611V405.638Z" fill="#18181C" stroke="white" stroke-width="0.7" stroke-miterlimit="10"/>
<path d="M157.679 392.728L154.975 394.26V389.152L157.679 387.611V392.728Z" fill="#18181C" stroke="white" stroke-width="0.7" stroke-miterlimit="10"/>
<path d="M153.27 408.131L150.566 409.671V391.644L153.27 390.104V408.131Z" fill="#18181C" stroke="white" stroke-width="0.7" stroke-miterlimit="10"/>
<path d="M153.27 397.728L150.566 399.268V391.644L153.27 390.104V397.728Z" fill="#18181C" stroke="white" stroke-width="0.7" stroke-miterlimit="10"/>
<path d="M134.304 400.104L131.647 398.587V395.901L134.304 397.418V400.104Z" fill="#18181C" stroke="white" stroke-width="0.7" stroke-miterlimit="10"/>
<path d="M126.735 391.946L124.07 390.429V387.735L126.735 389.252V391.946Z" fill="#18181C" stroke="white" stroke-width="0.7" stroke-miterlimit="10"/>
<path d="M122.939 389.817L120.281 388.3V385.615L122.939 387.132V389.817Z" fill="#18181C" stroke="white" stroke-width="0.7" stroke-miterlimit="10"/>
<path d="M122.939 397.635L120.281 396.118V393.432L122.939 394.949V397.635Z" fill="#18181C" stroke="white" stroke-width="0.7" stroke-miterlimit="10"/>
<path d="M115.462 393.401L112.805 391.892V389.198L115.462 390.715V393.401Z" fill="#18181C" stroke="white" stroke-width="0.7" stroke-miterlimit="10"/>
<path d="M111.681 383.463L109.016 381.946V379.26L111.681 380.769V383.463Z" fill="#18181C" stroke="white" stroke-width="0.7" stroke-miterlimit="10"/>
<path d="M287.767 239.795C286.163 240.786 285.164 243.248 285.536 245.283C285.9 247.319 287.496 248.163 289.092 247.164C290.688 246.166 291.687 243.712 291.323 241.676C290.959 239.641 289.363 238.797 287.767 239.795Z" fill="white" stroke="white" stroke-width="0.7" stroke-miterlimit="10"/>
<path d="M230.978 102.839C220.534 102.839 210.78 103.768 201.901 105.393L149.714 96.1978V125.332H149.776C151.062 142.508 184.035 161.193 230.978 161.193C277.92 161.193 310.894 142.508 312.18 125.332H312.234V96.1978L260.054 105.393C251.183 103.768 241.421 102.839 230.978 102.839Z" fill="#18181C" stroke="white" stroke-width="0.7" stroke-miterlimit="10"/>
<path d="M230.978 58.2161C183.09 58.2161 149.722 77.6596 149.722 95.114C149.722 112.568 183.098 132.012 230.978 132.012C278.858 132.012 312.234 112.561 312.234 95.114C312.234 77.6674 278.865 58.2161 230.978 58.2161Z" fill="#18181C" stroke="white" stroke-width="0.7" stroke-miterlimit="10"/>
<path d="M298.459 124.62C296.824 125.642 295.809 128.142 296.181 130.216C296.553 132.291 298.18 133.158 299.815 132.136C301.442 131.122 302.464 128.614 302.092 126.54C301.721 124.465 300.094 123.598 298.467 124.62H298.459Z" fill="#18181C" stroke="white" stroke-width="0.7" stroke-miterlimit="10"/>
<path d="M275.743 135.154C274.116 136.168 273.093 138.676 273.465 140.751C273.837 142.825 275.464 143.692 277.091 142.67C278.726 141.649 279.741 139.148 279.369 137.074C278.997 135 277.37 134.133 275.743 135.154Z" fill="#18181C" stroke="white" stroke-width="0.7" stroke-miterlimit="10"/>
<path d="M287.767 131.037C286.163 132.027 285.164 134.489 285.536 136.524C285.9 138.56 287.496 139.404 289.092 138.405C290.688 137.407 291.687 134.953 291.323 132.917C290.959 130.882 289.363 130.038 287.767 131.037Z" fill="white" stroke="white" stroke-width="0.7" stroke-miterlimit="10"/>
<path d="M230.978 66.1963C222.494 66.1963 214.569 66.9471 207.356 68.2707H164.953V84.4711H165.008C166.053 98.4268 192.844 113.605 230.978 113.605C269.111 113.605 295.91 98.4268 296.948 84.4711H296.995V68.2707H254.6C247.387 66.9471 239.461 66.1963 230.978 66.1963Z" fill="url(#paint3_linear_350_1102)"/>
<path d="M230.978 45.4678C220.534 45.4678 210.78 46.3889 201.901 48.0221L149.714 38.8267V67.9611H149.776C151.062 85.1367 184.035 103.822 230.978 103.822C277.92 103.822 310.894 85.1445 312.18 67.9611H312.234V38.8267L260.054 48.0221C251.183 46.3967 241.421 45.4678 230.978 45.4678Z" fill="#18181C" stroke="white" stroke-width="0.7" stroke-miterlimit="10"/>
<path d="M230.978 0.845215C183.09 0.845215 149.722 20.2888 149.722 37.7431C149.722 55.1975 183.098 74.641 230.978 74.641C278.858 74.641 312.234 55.1975 312.234 37.7431C312.234 20.2888 278.865 0.845215 230.978 0.845215Z" fill="#18181C" stroke="white" stroke-width="0.7" stroke-miterlimit="10"/>
<path d="M298.459 68.2785C296.824 69.3002 295.809 71.8003 296.181 73.8824C296.553 75.9646 298.18 76.816 299.815 75.802C301.442 74.788 302.464 72.2802 302.092 70.2058C301.721 68.1236 300.094 67.2645 298.467 68.2862L298.459 68.2785Z" fill="#18181C" stroke="white" stroke-width="0.7" stroke-miterlimit="10"/>
<path d="M275.743 78.8053C274.116 79.8271 273.093 82.3272 273.465 84.4016C273.837 86.4837 275.464 87.3429 277.091 86.3212C278.726 85.3072 279.741 82.7993 279.369 80.7249C278.997 78.6505 277.37 77.7836 275.743 78.8053Z" fill="#18181C" stroke="white" stroke-width="0.7" stroke-miterlimit="10"/>
<path d="M287.767 74.3005C286.163 75.2912 285.164 77.7526 285.536 79.7883C285.9 81.824 287.496 82.6677 289.092 81.6692C290.688 80.6707 291.687 78.2171 291.323 76.1814C290.959 74.1457 289.363 73.302 287.767 74.3005Z" fill="white" stroke="white" stroke-width="0.7" stroke-miterlimit="10"/>
<defs>
<linearGradient id="paint0_linear_350_1102" x1="230.974" y1="228.302" x2="230.974" y2="284.41" gradientUnits="userSpaceOnUse">
<stop offset="0.0729167" stop-color="#FFBAAA"/>
<stop offset="0.526042" stop-color="#FB6E4E"/>
<stop offset="0.916667" stop-color="#FB6E4E"/>
</linearGradient>
<linearGradient id="paint1_linear_350_1102" x1="230.974" y1="178.323" x2="230.974" y2="234.431" gradientUnits="userSpaceOnUse">
<stop offset="0.0729167" stop-color="#FFBAAA"/>
<stop offset="0.526042" stop-color="#FB6E4E"/>
<stop offset="0.916667" stop-color="#FB6E4E"/>
</linearGradient>
<linearGradient id="paint2_linear_350_1102" x1="230.974" y1="120.611" x2="230.974" y2="176.719" gradientUnits="userSpaceOnUse">
<stop offset="0.0729167" stop-color="#FFBAAA"/>
<stop offset="0.526042" stop-color="#FB6E4E"/>
<stop offset="0.916667" stop-color="#FB6E4E"/>
</linearGradient>
<linearGradient id="paint3_linear_350_1102" x1="230.974" y1="61.8468" x2="230.974" y2="117.955" gradientUnits="userSpaceOnUse">
<stop offset="0.0729167" stop-color="#FFBAAA"/>
<stop offset="0.526042" stop-color="#FB6E4E"/>
<stop offset="0.916667" stop-color="#FB6E4E"/>
</linearGradient>
</defs>
</svg>
