<svg width="347" height="326" viewBox="0 0 347 326" fill="none" xmlns="http://www.w3.org/2000/svg">
<path d="M1 225.904L173.144 126.517L345.288 225.904L173.144 325.292L1 225.904Z" stroke="white" stroke-miterlimit="10"/>
<path d="M87.069 275.598L259.213 176.21" stroke="white" stroke-miterlimit="10"/>
<path d="M44.3949 250.629L216.539 151.241" stroke="white" stroke-miterlimit="10"/>
<path d="M129.844 300.359L301.988 200.971" stroke="white" stroke-miterlimit="10"/>
<path d="M259.213 275.598L87.069 176.21" stroke="white" stroke-miterlimit="10"/>
<path d="M216.211 300.341L44.0673 200.953" stroke="white" stroke-miterlimit="10"/>
<path d="M302.072 250.796L129.928 151.408" stroke="white" stroke-miterlimit="10"/>
<path d="M1 203.79L173.144 104.402L345.288 203.79L173.144 303.178L1 203.79Z" fill="url(#paint0_linear_350_2077)"/>
<path d="M143.86 53.5698L156.392 58.8735L116.37 81.3874L103.832 76.0778C103.046 75.75 102.336 75.7798 101.788 76.0837L141.81 53.5758C142.358 53.2718 143.068 53.2361 143.86 53.5758V53.5698Z" fill="#18181C" stroke="white" stroke-miterlimit="10"/>
<path d="M188.477 209.665L246.913 176.705L245.846 189.607C245.751 190.775 245.28 191.609 244.571 192.008C225.096 202.997 205.622 213.974 186.141 224.957C186.85 224.564 187.321 223.735 187.416 222.573L188.471 209.665H188.477Z" fill="#18181C" stroke="white" stroke-miterlimit="10"/>
<path d="M160.689 23.5176L134.439 38.4156C128.766 31.1394 124.678 22.8919 121.174 24.8644L144.123 11.8852C150.38 8.47652 154.724 15.27 160.689 23.5176Z" fill="#18181C" stroke="white" stroke-miterlimit="10"/>
<path d="M177.232 33.0105C166.779 38.9101 150.38 59.0463 150.38 88.1034C150.38 167.558 231.371 215.464 253.361 177.057C212.105 249.104 84.5185 155.717 131.704 57.0976C136.745 46.5677 177.232 33.0165 177.232 33.0165V33.0105Z" fill="#18181C" stroke="white" stroke-miterlimit="10"/>
<path d="M231.377 208.545L254.207 195.661L260.303 209.66C261.43 212.252 261.149 214.761 259.689 215.583C240.209 226.572 256.334 217.478 236.86 228.473C238.32 227.639 238.606 225.13 237.473 222.537L231.377 208.545Z" fill="#18181C" stroke="white" stroke-miterlimit="10"/>
<path d="M170.075 19.066C174.687 16.4618 167.077 25.0073 172.763 24.8166L155.153 34.4884C149.474 34.6791 140.315 37.2296 135.404 38.1176L158.139 25.347L170.075 19.06V19.066Z" fill="#18181C" stroke="white" stroke-miterlimit="10"/>
<path d="M245.638 191.752L268.467 178.868C264.892 186.151 260.035 191.794 254.207 195.661L231.377 208.545C237.205 204.678 242.062 199.034 245.638 191.746V191.752Z" fill="#18181C" stroke="white" stroke-miterlimit="10"/>
<path d="M177.989 1.34924L193.101 4.3646L170.272 17.2484L155.159 14.2271C154.533 14.096 153.991 14.1794 153.538 14.4416L176.368 1.54589C176.815 1.28965 177.363 1.21218 177.989 1.34328V1.34924Z" fill="#18181C" stroke="white" stroke-miterlimit="10"/>
<path d="M197.857 10.2405L200.359 23.4164L177.53 36.3002L175.027 23.1244C174.55 20.7049 172.512 17.6836 170.271 17.2486L193.101 4.36475C195.431 4.82361 197.422 7.9224 197.857 10.2405Z" fill="#18181C" stroke="white" stroke-miterlimit="10"/>
<path d="M260.768 199.726L264.934 183.54L287.763 170.656L283.598 186.842C283.371 187.652 282.96 188.206 282.424 188.504C262.943 199.499 279.075 190.405 259.594 201.394C260.13 201.09 260.554 200.53 260.774 199.726H260.768Z" fill="#18181C" stroke="white" stroke-miterlimit="10"/>
<path d="M287.823 168.66C287.841 168.779 287.847 168.904 287.853 169.024C287.895 169.602 287.889 170.162 287.757 170.662L264.928 183.546C265.053 183.046 265.065 182.485 265.029 181.913C265.017 181.794 265.011 181.669 264.993 181.544C264.463 177.313 261.03 175.281 252.002 167.558L274.826 154.674C283.473 162.075 287.257 164.107 287.823 168.66Z" fill="#18181C" stroke="white" stroke-miterlimit="10"/>
<path d="M225.12 39.1307L202.29 52.0205C194.937 45.6858 186.63 40.0782 177.53 36.3001L200.36 23.4163C209.328 27.1348 217.683 32.7246 225.12 39.1307Z" fill="#18181C" stroke="white" stroke-miterlimit="10"/>
<path d="M273.116 123.895C275.07 134.234 275.69 144.335 274.921 153.798C274.886 154.09 274.85 154.364 274.826 154.668L252.002 167.552C252.02 167.254 252.05 166.974 252.092 166.682C252.86 157.212 252.246 147.112 250.28 136.784L273.116 123.895Z" fill="#18181C" stroke="white" stroke-miterlimit="10"/>
<path d="M233.26 29.5184C234.548 30.2812 247.765 45.0601 248.772 46.1685L225.943 59.0463C222.427 55.1848 219.387 52.1396 217.135 49.5891C211.772 43.5047 209.68 40.9423 207.582 42.1281L230.412 29.2443C231.187 28.7974 232.23 28.8987 233.26 29.5184Z" fill="#18181C" stroke="white" stroke-miterlimit="10"/>
<path d="M255.196 110.462L278.026 97.5786L284.498 118.215C285.225 120.539 284.778 122.548 283.526 123.263L260.697 136.141C261.954 135.438 262.401 133.423 261.668 131.099L255.196 110.468V110.462Z" fill="#18181C" stroke="white" stroke-miterlimit="10"/>
<path d="M258.355 82.0429C258.736 82.7878 259.117 83.5327 259.493 84.2776C260.911 87.1321 262.252 90.0283 263.521 92.9185L240.697 105.808C239.428 102.912 238.087 100.01 236.663 97.1614C236.288 96.4165 235.906 95.6776 235.525 94.9267C231.896 87.9485 227.814 81.3576 223.404 75.2375L246.228 62.3596C250.637 68.4738 254.714 75.0528 258.355 82.0429Z" fill="#18181C" stroke="white" stroke-miterlimit="10"/>
<path d="M228.112 64.8566C228.124 64.7076 228.118 64.5467 228.112 64.3798C228.112 63.9686 228.058 63.5336 227.969 63.1045C227.939 62.9317 227.915 62.7708 227.867 62.598C227.707 62.014 227.486 61.43 227.2 60.8579C226.854 60.2143 226.437 59.5946 225.943 59.0463L248.772 46.1685C249.267 46.7048 249.684 47.3186 250.024 47.9681C250.024 47.9681 250.03 47.9741 250.036 47.986C250.322 48.5402 250.536 49.1302 250.691 49.7142C250.739 49.881 250.769 50.0419 250.798 50.2028C250.888 50.6557 250.941 51.0729 250.947 51.49C250.947 51.6509 250.953 51.8118 250.947 51.9608C250.912 52.5031 250.81 53.0096 250.596 53.4387L246.234 62.3537L223.41 75.2315L227.766 66.3225C227.981 65.8994 228.082 65.381 228.118 64.8506L228.112 64.8566Z" fill="#18181C" stroke="white" stroke-miterlimit="10"/>
<path d="M272.865 92.549C274.701 92.4954 276.399 94.3249 277.287 95.904C277.323 95.9815 277.388 96.0352 277.418 96.1126C277.424 96.1186 277.43 96.1305 277.436 96.1424C277.669 96.5953 277.871 97.078 278.026 97.5786L255.196 110.462C255.041 109.962 254.839 109.479 254.6 109.014C254.213 108.246 253.79 107.739 253.361 107.256C253.134 107 252.908 106.774 252.664 106.565C250.536 104.765 249.911 105.445 240.692 105.802L263.515 92.9125L272.859 92.549H272.865Z" fill="#18181C" stroke="white" stroke-miterlimit="10"/>
<path d="M100.459 79.3613L101.681 98.9492C101.842 101.416 103.427 104.074 105.322 105.206C105.501 105.314 105.685 105.403 105.87 105.481L116.591 109.986C118.635 120.617 122.091 131.504 126.853 142.213L119.046 147.511C117.509 148.548 117.485 151.569 118.986 154.191L129.928 173.41C130.637 174.643 131.542 175.585 132.46 176.133C133.533 176.771 134.623 176.884 135.446 176.336L143.294 170.978C149.903 180.138 157.286 188.218 165.194 194.893L164.11 207.782C163.901 210.297 165.48 213.438 167.625 214.796L183.155 224.647C185.378 225.97 187.213 225.016 187.41 222.573L188.465 209.665C196.79 213.253 204.728 214.856 211.992 214.594L218.166 228.741C218.881 230.35 219.989 231.625 221.139 232.316C221.985 232.823 222.855 233.008 223.606 232.775L236.472 228.64C238.248 228.056 238.695 225.356 237.467 222.543L231.371 208.551C237.199 204.684 242.056 199.04 245.632 191.752L255.947 200.554C256.215 200.78 256.483 200.965 256.746 201.126C258.533 202.199 260.232 201.674 260.75 199.731L264.916 183.546C265.494 181.312 264.272 178.07 262.204 176.306L251.99 167.558C252.008 167.26 252.038 166.98 252.079 166.688C252.848 157.218 252.234 147.118 250.268 136.79L259.713 136.415C261.674 136.325 262.55 133.948 261.656 131.099L255.184 110.468C254.582 108.508 253.277 106.815 251.895 105.999C251.275 105.624 250.631 105.421 250.03 105.451L240.691 105.814C239.422 102.918 238.081 100.016 236.657 97.1674C232.748 89.3549 228.266 82.0072 223.398 75.2435L227.754 66.3345C228.707 64.4633 227.873 61.1797 225.93 59.0523L211.837 43.5941C211.378 43.0816 210.895 42.7002 210.431 42.4022C208.869 41.4845 207.344 41.711 206.635 43.1531L202.278 52.0264C198.31 48.5998 194.221 45.513 190.02 42.873C189.287 42.4022 188.566 41.9613 187.845 41.5322C184.341 39.4346 180.897 37.7123 177.518 36.306L175.015 23.1301C174.58 20.8537 173.132 18.7144 171.499 17.749C171.094 17.5106 170.671 17.3378 170.259 17.2544L155.147 14.233C153.812 13.9589 152.966 14.4476 152.543 15.5798C152.418 15.9255 152.441 16.2651 152.424 16.6882C152.412 17.0637 152.388 17.4749 152.465 17.898L152.578 19.066L153.222 23.1778L154.986 31.6757C147.34 31.92 140.303 34.2918 134.48 38.4275L126.203 26.9679C125.542 26.1217 124.838 25.49 124.141 25.0728C122.836 24.2982 121.519 24.3041 120.703 25.2695L111.645 36.0855C110.387 37.5812 110.792 40.7635 112.55 43.1948L120.965 54.857C117.657 61.7459 115.476 70.0292 114.672 79.6414C114.654 79.9513 114.642 80.2433 114.624 80.5412L104.047 76.0956C101.889 75.2018 100.292 76.6677 100.453 79.3673L100.459 79.3613ZM126.34 87.0129C129.332 50.7749 156.035 36.8661 187.1 55.3635C187.702 55.7151 188.292 56.1025 188.9 56.4958C204.138 66.1438 217.891 82.1383 227.623 101.571C237.36 120.998 241.907 141.48 240.423 159.292C237.42 195.56 210.752 209.457 179.615 190.912C179.025 190.572 178.436 190.209 177.852 189.839C162.62 180.179 148.872 164.173 139.14 144.764C129.409 125.331 124.856 104.825 126.334 87.0129H126.34Z" fill="#18181C" stroke="white" stroke-miterlimit="10"/>
<path d="M145.493 261.886L78.5951 223.014L78.4401 203.945L145.338 242.823L145.493 261.886Z" fill="#18181C" stroke="white" stroke-miterlimit="10"/>
<path d="M145.338 242.823L78.4401 203.945L95.0604 194.351L161.959 233.223L145.338 242.823Z" fill="#18181C" stroke="white" stroke-miterlimit="10"/>
<path d="M161.958 233.222L95.0602 194.351L95.0066 175.162L161.905 214.034L161.958 233.222Z" fill="#18181C" stroke="white" stroke-miterlimit="10"/>
<path d="M161.905 214.034L95.0066 175.162L111.603 165.579L178.501 204.451L161.905 214.034Z" fill="#18181C" stroke="white" stroke-miterlimit="10"/>
<path d="M231.812 154.019L178.543 185.441L178.597 204.511L162.006 214.093L162.06 233.282L145.439 242.876L145.493 261.886L145.338 242.823L161.958 233.222L161.905 214.034L178.501 204.451L178.448 185.388L231.812 154.019Z" fill="#18181C" stroke="white" stroke-miterlimit="10"/>
<path d="M178.501 204.451L111.603 165.58L111.55 146.51L178.448 185.388L178.501 204.451Z" fill="#18181C" stroke="white" stroke-miterlimit="10"/>
<path d="M178.448 185.388L111.55 146.51L164.914 115.141L231.812 154.019L178.448 185.388Z" fill="#18181C" stroke="white" stroke-miterlimit="10"/>
<path d="M203.905 219.606C203.881 212.83 206.158 205.148 210.305 197.968C214.459 190.781 219.989 184.953 225.883 181.544C227.915 180.37 229.905 179.542 231.812 179.047V154.012L178.448 185.382L178.501 204.451L161.905 214.034L161.958 233.222L145.338 242.817L145.696 261.856L205.163 227.269C204.346 225.076 203.917 222.496 203.905 219.6V219.606Z" fill="#18181C" stroke="white" stroke-miterlimit="10"/>
<defs>
<linearGradient id="paint0_linear_350_2077" x1="173.144" y1="86.1658" x2="173.144" y2="321.414" gradientUnits="userSpaceOnUse">
<stop offset="0.0729167" stop-color="#FFBAAA"/>
<stop offset="0.526042" stop-color="#FB6E4E"/>
<stop offset="0.916667" stop-color="#FB6E4E"/>
</linearGradient>
</defs>
</svg>
