<svg width="347" height="325" viewBox="0 0 347 325" fill="none" xmlns="http://www.w3.org/2000/svg">
<path d="M1 224.986L173.144 125.598L345.288 224.986L173.144 324.373L1 224.986Z" stroke="white" stroke-miterlimit="10"/>
<path d="M87.0689 274.68L259.213 175.292" stroke="white" stroke-miterlimit="10"/>
<path d="M44.3951 249.705L216.539 150.323" stroke="white" stroke-miterlimit="10"/>
<path d="M129.844 299.44L301.988 200.052" stroke="white" stroke-miterlimit="10"/>
<path d="M259.213 274.68L87.0689 175.292" stroke="white" stroke-miterlimit="10"/>
<path d="M216.211 299.416L44.0673 200.034" stroke="white" stroke-miterlimit="10"/>
<path d="M302.072 249.877L129.928 150.49" stroke="white" stroke-miterlimit="10"/>
<path d="M1 202.871L173.144 103.483L345.288 202.871L173.144 302.259L1 202.871Z" fill="url(#paint0_linear_350_1864)"/>
<path d="M120.703 241.356L106.055 233.388C99.0946 229.604 92.5811 224.89 86.616 219.277C65.4846 199.456 53.8701 170.781 53.9058 138.529C53.9476 106.218 65.6753 74.1698 86.9318 48.2949C108.117 22.4498 136.274 5.8951 166.213 1.6879C187.684 -1.32747 208.214 2.26594 225.889 11.8782L240.537 19.8456" fill="#18181C"/>
<path d="M120.703 241.356L106.055 233.388C99.0946 229.604 92.5811 224.89 86.616 219.277C65.4846 199.456 53.8701 170.781 53.9058 138.529C53.9476 106.218 65.6753 74.1698 86.9318 48.2949C108.117 22.4498 136.274 5.8951 166.213 1.6879C187.684 -1.32747 208.214 2.26594 225.889 11.8782L240.537 19.8456" stroke="white" stroke-miterlimit="10"/>
<path d="M250.149 45.9291C268.712 63.3658 278.908 88.5613 278.848 116.88C278.783 145.168 268.497 173.2 249.875 195.815C231.294 218.436 206.611 232.923 180.36 236.612C154.11 240.301 129.475 232.745 111.001 215.332C92.5156 197.919 82.3611 172.729 82.4088 144.405C82.4564 116.063 92.7063 88.025 111.281 65.4455C129.862 42.8482 154.551 28.3673 180.795 24.6726C207.07 20.9779 231.687 28.5282 250.155 45.9291H250.149Z" fill="#18181C" stroke="white" stroke-miterlimit="10"/>
<path d="M259.797 34.2432C280.875 54.0457 292.447 82.7154 292.376 114.979C292.31 147.206 280.624 179.106 259.481 204.79C238.373 230.546 210.335 247.053 180.521 251.26C150.612 255.461 122.562 246.844 101.466 227C80.3887 207.227 68.804 178.629 68.8457 146.455C68.8874 114.228 80.5853 82.2625 101.782 56.4472C122.914 30.6736 150.993 14.1606 180.855 9.96535C210.717 5.77007 238.755 14.393 259.791 34.2432H259.797Z" fill="#18181C" stroke="white" stroke-miterlimit="10"/>
<path d="M250.149 45.9829C268.658 63.3718 278.819 88.5495 278.759 116.88C278.699 145.18 268.444 173.194 249.869 195.75C231.336 218.365 206.712 232.864 180.533 236.553C154.271 240.241 129.636 232.679 111.108 215.248C92.5992 197.883 82.4268 172.771 82.4625 144.518C82.4983 116.218 92.772 88.1503 111.389 65.4814C129.946 42.8483 154.599 28.3495 180.831 24.6608C207.052 20.978 231.675 28.5462 250.149 45.9769V45.9829Z" fill="#18181C" stroke="white" stroke-miterlimit="10"/>
<path d="M124.129 213.514L126.376 214.736C125.619 214.2 124.868 213.651 124.129 213.085V213.514Z" fill="#18181C" stroke="white" stroke-miterlimit="10"/>
<path d="M222.427 39.7673L222.176 174.672L139.856 50.8336C132.633 56.0062 126.096 61.9952 120.435 68.6457L120.172 209.438C121.466 210.57 122.788 211.643 124.129 212.674C125.816 213.979 127.538 215.195 129.29 216.327L138.777 221.488L139.027 86.5889L139.29 86.9822L221.348 210.481C228.41 205.434 234.947 199.397 240.775 192.55L241.037 51.8169C235.269 46.7694 229.011 42.7171 222.432 39.7673H222.427Z" fill="#18181C" stroke="white" stroke-miterlimit="10"/>
<defs>
<linearGradient id="paint0_linear_350_1864" x1="173.144" y1="85.2471" x2="173.144" y2="320.495" gradientUnits="userSpaceOnUse">
<stop offset="0.0729167" stop-color="#FFBAAA"/>
<stop offset="0.526042" stop-color="#FB6E4E"/>
<stop offset="0.916667" stop-color="#FB6E4E"/>
</linearGradient>
</defs>
</svg>
