<svg width="347" height="326" viewBox="0 0 347 326" fill="none" xmlns="http://www.w3.org/2000/svg">
<path d="M1 225.648L173.144 126.26L345.288 225.648L173.144 325.036L1 225.648Z" stroke="white" stroke-miterlimit="10"/>
<path d="M87.0691 275.342L259.213 175.954" stroke="white" stroke-miterlimit="10"/>
<path d="M44.3949 250.367L216.539 150.979" stroke="white" stroke-miterlimit="10"/>
<path d="M129.844 300.103L301.988 200.715" stroke="white" stroke-miterlimit="10"/>
<path d="M259.213 275.342L87.0691 175.954" stroke="white" stroke-miterlimit="10"/>
<path d="M216.211 300.079L44.0673 200.691" stroke="white" stroke-miterlimit="10"/>
<path d="M302.071 250.54L129.928 151.152" stroke="white" stroke-miterlimit="10"/>
<path d="M1 203.534L173.144 104.146L345.288 203.534L173.144 302.915L1 203.534Z" fill="url(#paint0_linear_350_2098)"/>
<path d="M53.3159 208.855V70.4881L173.144 1.30762L292.972 70.4881V208.855L173.144 278.036L53.3159 208.855Z" fill="#18181C" stroke="white" stroke-miterlimit="10"/>
<path d="M292.972 208.289L173.662 139.389L53.3161 208.289" stroke="white" stroke-miterlimit="10"/>
<path d="M115.715 201.962V135.215L173.221 101.845L230.728 135.215V201.962L173.221 235.332L115.715 201.962Z" fill="#18181C" stroke="white" stroke-miterlimit="10"/>
<path d="M230.728 134.621L172.732 168.589L115.715 134.621" stroke="white" stroke-miterlimit="10"/>
<path d="M53.3159 70.488L172.625 139.388L292.972 70.488" stroke="white" stroke-miterlimit="10"/>
<line x1="172.827" y1="139.389" x2="172.827" y2="275.259" stroke="white"/>
<line x1="171.827" y1="101.845" x2="171.827" y2="1.13474" stroke="white"/>
<defs>
<linearGradient id="paint0_linear_350_2098" x1="173.144" y1="85.91" x2="173.144" y2="321.151" gradientUnits="userSpaceOnUse">
<stop offset="0.0729167" stop-color="#FFBAAA"/>
<stop offset="0.526042" stop-color="#FB6E4E"/>
<stop offset="0.916667" stop-color="#FB6E4E"/>
</linearGradient>
</defs>
</svg>
